{
    "asset" : {
        "generator" : "Khronos glTF Blender I/O v1.2.75",
        "version" : "2.0"
    },
    "scene" : 0,
    "scenes" : [
        {
            "name" : "Scene",
            "nodes" : [
                0,
                1,
                2,
                3,
                4,
                5,
                6
            ]
        }
    ],
    "nodes" : [
        {
            "name" : "Light.002",
            "rotation" : [
                0.16907575726509094,
                0.7558803558349609,
                -0.27217137813568115,
                0.570947527885437
            ],
            "translation" : [
                4.076245307922363,
                5.903861999511719,
                6.190442085266113
            ]
        },
        {
            "mesh" : 0,
            "name" : "behind_wall_up",
            "rotation" : [
                0,
                0.7071067690849304,
                0,
                0.7071067690849304
            ],
            "translation" : [
                -1.7367455959320068,
                0.09542807936668396,
                1.5790448188781738
            ]
        },
        {
            "mesh" : 1,
            "name" : "Plane.005",
            "rotation" : [
                0.7068480253219604,
                -0.7068479657173157,
                0.019128404557704926,
                -0.019128404557704926
            ],
            "scale" : [
                0.040690165013074875,
                0.20000000298023224,
                0.3832577168941498
            ],
            "translation" : [
                -1.5458470582962036,
                1.2831629514694214,
                0.10412255674600601
            ]
        },
        {
            "mesh" : 2,
            "name" : "Plane",
            "rotation" : [
                0.7070465683937073,
                -0.7070465087890625,
                0.009230687282979488,
                -0.009230687282979488
            ],
            "scale" : [
                0.15000000596046448,
                0.20000000298023224,
                0.30000001192092896
            ],
            "translation" : [
                -1.5458470582962036,
                1.0612882375717163,
                0.18614506721496582
            ]
        },
        {
            "mesh" : 3,
            "name" : "Plane.001",
            "rotation" : [
                0,
                0,
                -0.7071067690849304,
                0.7071067690849304
            ],
            "scale" : [
                0.30000001192092896,
                0.5,
                0.5
            ],
            "translation" : [
                -1.6027743816375732,
                1.1171748638153076,
                1.1702042818069458
            ]
        },
        {
            "name" : "Text",
            "rotation" : [
                0.5,
                0.5,
                -0.5,
                0.4999999701976776
            ],
            "scale" : [
                0.05000000074505806,
                0.5,
                0.05000000074505806
            ],
            "translation" : [
                -1.5221601724624634,
                1.2790151834487915,
                0.48149824142456055
            ]
        },
        {
            "mesh" : 4,
            "name" : "Plane.002",
            "rotation" : [
                0,
                0,
                -0.7071067690849304,
                0.7071067690849304
            ],
            "scale" : [
                0.30000001192092896,
                0.5,
                0.5
            ],
            "translation" : [
                -1.6027743816375732,
                1.1171748638153076,
                0.1113802045583725
            ]
        }
    ],
    "materials" : [
        {
            "doubleSided" : true,
            "name" : "Default OBJ.001",
            "pbrMetallicRoughness" : {}
        },
        {
            "doubleSided" : true,
            "name" : "Material.013",
            "pbrMetallicRoughness" : {}
        },
        {
            "doubleSided" : true,
            "emissiveFactor" : [
                0,
                0,
                0
            ],
            "name" : "Material.003",
            "pbrMetallicRoughness" : {
                "baseColorFactor" : [
                    0.021784409880638123,
                    0.014592076651751995,
                    1,
                    1
                ],
                "metallicFactor" : 0,
                "roughnessFactor" : 0.5
            }
        },
        {
            "doubleSided" : true,
            "name" : "Material.005",
            "pbrMetallicRoughness" : {}
        }
    ],
    "meshes" : [
        {
            "name" : "behind_wall_upper.001",
            "primitives" : [
                {
                    "attributes" : {
                        "POSITION" : 0,
                        "NORMAL" : 1,
                        "TEXCOORD_0" : 2
                    },
                    "indices" : 3,
                    "material" : 0
                }
            ]
        },
        {
            "name" : "Plane.004",
            "primitives" : [
                {
                    "attributes" : {
                        "POSITION" : 4,
                        "NORMAL" : 5,
                        "TEXCOORD_0" : 6
                    },
                    "indices" : 7,
                    "material" : 1
                }
            ]
        },
        {
            "name" : "Plane.002",
            "primitives" : [
                {
                    "attributes" : {
                        "POSITION" : 8,
                        "NORMAL" : 9,
                        "TEXCOORD_0" : 10
                    },
                    "indices" : 7,
                    "material" : 2
                }
            ]
        },
        {
            "name" : "Plane.008",
            "primitives" : [
                {
                    "attributes" : {
                        "POSITION" : 11,
                        "NORMAL" : 12,
                        "TEXCOORD_0" : 13
                    },
                    "indices" : 14
                }
            ]
        },
        {
            "name" : "Plane.003",
            "primitives" : [
                {
                    "attributes" : {
                        "POSITION" : 15,
                        "NORMAL" : 16,
                        "TEXCOORD_0" : 17
                    },
                    "indices" : 7,
                    "material" : 3
                }
            ]
        }
    ],
    "accessors" : [
        {
            "bufferView" : 0,
            "componentType" : 5126,
            "count" : 34565,
            "max" : [
                0.001696195686236024,
                1.4851810932159424,
                0.8024455308914185
            ],
            "min" : [
                -0.19506724178791046,
                0.09217627346515656,
                0.15498587489128113
            ],
            "type" : "VEC3"
        },
        {
            "bufferView" : 1,
            "componentType" : 5126,
            "count" : 34565,
            "type" : "VEC3"
        },
        {
            "bufferView" : 2,
            "componentType" : 5126,
            "count" : 34565,
            "type" : "VEC2"
        },
        {
            "bufferView" : 3,
            "componentType" : 5123,
            "count" : 127386,
            "type" : "SCALAR"
        },
        {
            "bufferView" : 4,
            "componentType" : 5126,
            "count" : 4,
            "max" : [
                1,
                0,
                1
            ],
            "min" : [
                -1,
                0,
                -1
            ],
            "type" : "VEC3"
        },
        {
            "bufferView" : 5,
            "componentType" : 5126,
            "count" : 4,
            "type" : "VEC3"
        },
        {
            "bufferView" : 6,
            "componentType" : 5126,
            "count" : 4,
            "type" : "VEC2"
        },
        {
            "bufferView" : 7,
            "componentType" : 5123,
            "count" : 6,
            "type" : "SCALAR"
        },
        {
            "bufferView" : 8,
            "componentType" : 5126,
            "count" : 4,
            "max" : [
                1,
                0,
                1
            ],
            "min" : [
                -1,
                0,
                -1
            ],
            "type" : "VEC3"
        },
        {
            "bufferView" : 9,
            "componentType" : 5126,
            "count" : 4,
            "type" : "VEC3"
        },
        {
            "bufferView" : 10,
            "componentType" : 5126,
            "count" : 4,
            "type" : "VEC2"
        },
        {
            "bufferView" : 11,
            "componentType" : 5126,
            "count" : 96,
            "max" : [
                3.061546802520752,
                0.004244348034262657,
                0.9034455418586731
            ],
            "min" : [
                1.0545119047164917,
                -0.005755653139203787,
                -1.1170570850372314
            ],
            "type" : "VEC3"
        },
        {
            "bufferView" : 12,
            "componentType" : 5126,
            "count" : 96,
            "type" : "VEC3"
        },
        {
            "bufferView" : 13,
            "componentType" : 5126,
            "count" : 96,
            "type" : "VEC2"
        },
        {
            "bufferView" : 14,
            "componentType" : 5123,
            "count" : 144,
            "type" : "SCALAR"
        },
        {
            "bufferView" : 15,
            "componentType" : 5126,
            "count" : 4,
            "max" : [
                1,
                0,
                1
            ],
            "min" : [
                -1,
                0,
                -1
            ],
            "type" : "VEC3"
        },
        {
            "bufferView" : 16,
            "componentType" : 5126,
            "count" : 4,
            "type" : "VEC3"
        },
        {
            "bufferView" : 17,
            "componentType" : 5126,
            "count" : 4,
            "type" : "VEC2"
        }
    ],
    "bufferViews" : [
        {
            "buffer" : 0,
            "byteLength" : 414780,
            "byteOffset" : 0
        },
        {
            "buffer" : 0,
            "byteLength" : 414780,
            "byteOffset" : 414780
        },
        {
            "buffer" : 0,
            "byteLength" : 276520,
            "byteOffset" : 829560
        },
        {
            "buffer" : 0,
            "byteLength" : 254772,
            "byteOffset" : 1106080
        },
        {
            "buffer" : 0,
            "byteLength" : 48,
            "byteOffset" : 1360852
        },
        {
            "buffer" : 0,
            "byteLength" : 48,
            "byteOffset" : 1360900
        },
        {
            "buffer" : 0,
            "byteLength" : 32,
            "byteOffset" : 1360948
        },
        {
            "buffer" : 0,
            "byteLength" : 12,
            "byteOffset" : 1360980
        },
        {
            "buffer" : 0,
            "byteLength" : 48,
            "byteOffset" : 1360992
        },
        {
            "buffer" : 0,
            "byteLength" : 48,
            "byteOffset" : 1361040
        },
        {
            "buffer" : 0,
            "byteLength" : 32,
            "byteOffset" : 1361088
        },
        {
            "buffer" : 0,
            "byteLength" : 1152,
            "byteOffset" : 1361120
        },
        {
            "buffer" : 0,
            "byteLength" : 1152,
            "byteOffset" : 1362272
        },
        {
            "buffer" : 0,
            "byteLength" : 768,
            "byteOffset" : 1363424
        },
        {
            "buffer" : 0,
            "byteLength" : 288,
            "byteOffset" : 1364192
        },
        {
            "buffer" : 0,
            "byteLength" : 48,
            "byteOffset" : 1364480
        },
        {
            "buffer" : 0,
            "byteLength" : 48,
            "byteOffset" : 1364528
        },
        {
            "buffer" : 0,
            "byteLength" : 32,
            "byteOffset" : 1364576
        }
    ],
    "buffers" : [
        {
            "byteLength" : 1364608,
            "uri" : "data:application/octet-stream;base64,"
        }
    ]
}
