{
    "asset" : {
        "generator" : "Khronos glTF Blender I/O v1.2.75",
        "version" : "2.0"
    },
    "scene" : 0,
    "scenes" : [
        {
            "name" : "Scene",
            "nodes" : [
                0,
                1,
                2,
                6,
                7,
                8,
                9,
                10
            ]
        }
    ],
    "nodes" : [
        {
            "mesh" : 0,
            "name" : "arrows",
            "rotation" : [
                1,
                0,
                0,
                -4.371138828673793e-08
            ],
            "scale" : [
                0.029999999329447746,
                0.029999999329447746,
                0.029999999329447746
            ],
            "translation" : [
                0,
                2.0241079330444336,
                -2.43522572517395
            ]
        },
        {
            "mesh" : 1,
            "name" : "arrow_longer",
            "rotation" : [
                0.9960286617279053,
                0,
                0,
                0.08903305232524872
            ],
            "scale" : [
                0.03999999910593033,
                0.03999999910593033,
                0.03999999910593033
            ],
            "translation" : [
                0.09848859906196594,
                2.05615234375,
                -2.9903151988983154
            ]
        },
        {
            "mesh" : 2,
            "name" : "window",
            "rotation" : [
                0.7071068286895752,
                0,
                0,
                0.7071067094802856
            ],
            "translation" : [
                -0.4662591814994812,
                0.5819805860519409,
                -1.9978787899017334
            ]
        },
        {
            "mesh" : 3,
            "name" : "Plane.004",
            "rotation" : [
                0.2065546214580536,
                -0.2065546065568924,
                -0.6762655973434448,
                0.6762656569480896
            ],
            "scale" : [
                0.30000001192092896,
                0.5,
                0.5
            ],
            "translation" : [
                -0.22710245847702026,
                1.9407917261123657,
                -1.52082359790802
            ]
        },
        {
            "mesh" : 4,
            "name" : "Plane.003",
            "rotation" : [
                0.27059805393218994,
                -0.27059805393218994,
                -0.6532815098762512,
                0.6532814502716064
            ],
            "scale" : [
                0.4000000059604645,
                0.5,
                0.4000000059604645
            ],
            "translation" : [
                -0.8839607238769531,
                1.3876824378967285,
                -0.8776624202728271
            ]
        },
        {
            "mesh" : 5,
            "name" : "Text.001",
            "rotation" : [
                0.6532815098762512,
                0.27059805393218994,
                -0.27059805393218994,
                0.6532814502716064
            ],
            "scale" : [
                0.05000000074505806,
                0.5,
                0.05000000074505806
            ],
            "translation" : [
                -1.0271782875061035,
                1.6299974918365479,
                -0.6431649923324585
            ]
        },
        {
            "children" : [
                3,
                4,
                5
            ],
            "name" : "window_panel_summer"
        },
        {
            "mesh" : 6,
            "name" : "Cube.004",
            "rotation" : [
                -0.2682671546936035,
                0.26826712489128113,
                -0.6542420983314514,
                0.6542421579360962
            ],
            "scale" : [
                -0.2050570845603943,
                -0.33530867099761963,
                0.00727953901514411
            ],
            "translation" : [
                -0.7815123796463013,
                1.3253475427627563,
                -0.8410477638244629
            ]
        },
        {
            "mesh" : 3,
            "name" : "Plane.004",
            "rotation" : [
                0.2065546214580536,
                -0.2065546065568924,
                -0.6762655973434448,
                0.6762656569480896
            ],
            "scale" : [
                0.30000001192092896,
                0.5,
                0.5
            ],
            "translation" : [
                -0.22710245847702026,
                1.9407917261123657,
                -1.52082359790802
            ]
        },
        {
            "mesh" : 4,
            "name" : "Plane.003",
            "rotation" : [
                0.27059805393218994,
                -0.27059805393218994,
                -0.6532815098762512,
                0.6532814502716064
            ],
            "scale" : [
                0.4000000059604645,
                0.5,
                0.4000000059604645
            ],
            "translation" : [
                -0.8839607238769531,
                1.3876824378967285,
                -0.8776624202728271
            ]
        },
        {
            "mesh" : 5,
            "name" : "Text.001",
            "rotation" : [
                0.6532815098762512,
                0.27059805393218994,
                -0.27059805393218994,
                0.6532814502716064
            ],
            "scale" : [
                0.05000000074505806,
                0.5,
                0.05000000074505806
            ],
            "translation" : [
                -1.0271782875061035,
                1.6299974918365479,
                -0.6431649923324585
            ]
        }
    ],
    "animations" : [
        {
            "channels" : [
                {
                    "sampler" : 0,
                    "target" : {
                        "node" : 0,
                        "path" : "translation"
                    }
                },
                {
                    "sampler" : 1,
                    "target" : {
                        "node" : 0,
                        "path" : "rotation"
                    }
                },
                {
                    "sampler" : 2,
                    "target" : {
                        "node" : 0,
                        "path" : "scale"
                    }
                }
            ],
            "name" : "arrowsAction",
            "samplers" : [
                {
                    "input" : 28,
                    "interpolation" : "LINEAR",
                    "output" : 29
                },
                {
                    "input" : 28,
                    "interpolation" : "LINEAR",
                    "output" : 30
                },
                {
                    "input" : 28,
                    "interpolation" : "LINEAR",
                    "output" : 31
                }
            ]
        },
        {
            "channels" : [
                {
                    "sampler" : 0,
                    "target" : {
                        "node" : 1,
                        "path" : "translation"
                    }
                },
                {
                    "sampler" : 1,
                    "target" : {
                        "node" : 1,
                        "path" : "rotation"
                    }
                },
                {
                    "sampler" : 2,
                    "target" : {
                        "node" : 1,
                        "path" : "scale"
                    }
                }
            ],
            "name" : "arrow_longerAction",
            "samplers" : [
                {
                    "input" : 28,
                    "interpolation" : "LINEAR",
                    "output" : 32
                },
                {
                    "input" : 28,
                    "interpolation" : "LINEAR",
                    "output" : 33
                },
                {
                    "input" : 28,
                    "interpolation" : "LINEAR",
                    "output" : 34
                }
            ]
        }
    ],
    "materials" : [
        {
            "doubleSided" : true,
            "name" : "Default OBJ.047",
            "pbrMetallicRoughness" : {}
        },
        {
            "doubleSided" : true,
            "name" : "Default OBJ.049",
            "pbrMetallicRoughness" : {}
        },
        {
            "doubleSided" : true,
            "emissiveFactor" : [
                0,
                0,
                0
            ],
            "name" : "Default OBJ.002",
            "pbrMetallicRoughness" : {
                "baseColorFactor" : [
                    0.2624269425868988,
                    0.00512270350009203,
                    0.005887213628739119,
                    0.44285714626312256
                ],
                "metallicFactor" : 0,
                "roughnessFactor" : 0.5909091234207153
            }
        },
        {
            "doubleSided" : true,
            "name" : "Material.014",
            "pbrMetallicRoughness" : {}
        },
        {
            "doubleSided" : true,
            "name" : "Material.010",
            "pbrMetallicRoughness" : {}
        },
        {
            "doubleSided" : true,
            "name" : "Material.012",
            "pbrMetallicRoughness" : {}
        },
        {
            "doubleSided" : true,
            "emissiveFactor" : [
                0,
                0,
                0
            ],
            "name" : "Material.016",
            "pbrMetallicRoughness" : {
                "baseColorFactor" : [
                    0.8000000715255737,
                    0.05894911289215088,
                    0.04495234787464142,
                    1
                ],
                "metallicFactor" : 0,
                "roughnessFactor" : 0.5
            }
        }
    ],
    "meshes" : [
        {
            "name" : "arrows",
            "primitives" : [
                {
                    "attributes" : {
                        "POSITION" : 0,
                        "NORMAL" : 1,
                        "TEXCOORD_0" : 2
                    },
                    "indices" : 3,
                    "material" : 0
                }
            ]
        },
        {
            "name" : "arrow_longer",
            "primitives" : [
                {
                    "attributes" : {
                        "POSITION" : 4,
                        "NORMAL" : 5,
                        "TEXCOORD_0" : 6
                    },
                    "indices" : 7,
                    "material" : 1
                }
            ]
        },
        {
            "name" : "window",
            "primitives" : [
                {
                    "attributes" : {
                        "POSITION" : 8,
                        "NORMAL" : 9,
                        "TEXCOORD_0" : 10
                    },
                    "indices" : 11,
                    "material" : 2
                }
            ]
        },
        {
            "name" : "Plane.005",
            "primitives" : [
                {
                    "attributes" : {
                        "POSITION" : 12,
                        "NORMAL" : 13,
                        "TEXCOORD_0" : 14
                    },
                    "indices" : 15,
                    "material" : 3
                }
            ]
        },
        {
            "name" : "Plane.001",
            "primitives" : [
                {
                    "attributes" : {
                        "POSITION" : 16,
                        "NORMAL" : 17,
                        "TEXCOORD_0" : 18
                    },
                    "indices" : 19,
                    "material" : 4
                }
            ]
        },
        {
            "name" : "Text.002",
            "primitives" : [
                {
                    "attributes" : {
                        "POSITION" : 20,
                        "NORMAL" : 21,
                        "TEXCOORD_0" : 22
                    },
                    "indices" : 23,
                    "material" : 5
                }
            ]
        },
        {
            "name" : "Cube.004",
            "primitives" : [
                {
                    "attributes" : {
                        "POSITION" : 24,
                        "NORMAL" : 25,
                        "TEXCOORD_0" : 26
                    },
                    "indices" : 27,
                    "material" : 6
                }
            ]
        }
    ],
    "accessors" : [
        {
            "bufferView" : 0,
            "componentType" : 5126,
            "count" : 2520,
            "max" : [
                11.924888610839844,
                5.183221340179443,
                11.870731353759766
            ],
            "min" : [
                -10.473430633544922,
                -4.307210922241211,
                -12.01217269897461
            ],
            "type" : "VEC3"
        },
        {
            "bufferView" : 1,
            "componentType" : 5126,
            "count" : 2520,
            "type" : "VEC3"
        },
        {
            "bufferView" : 2,
            "componentType" : 5126,
            "count" : 2520,
            "type" : "VEC2"
        },
        {
            "bufferView" : 3,
            "componentType" : 5123,
            "count" : 4860,
            "type" : "SCALAR"
        },
        {
            "bufferView" : 4,
            "componentType" : 5126,
            "count" : 3752,
            "max" : [
                12.2061128616333,
                5.983638286590576,
                26.677490234375
            ],
            "min" : [
                -10.192206382751465,
                -4.430861949920654,
                -19.2271728515625
            ],
            "type" : "VEC3"
        },
        {
            "bufferView" : 5,
            "componentType" : 5126,
            "count" : 3752,
            "type" : "VEC3"
        },
        {
            "bufferView" : 6,
            "componentType" : 5126,
            "count" : 3752,
            "type" : "VEC2"
        },
        {
            "bufferView" : 7,
            "componentType" : 5123,
            "count" : 7236,
            "type" : "SCALAR"
        },
        {
            "bufferView" : 8,
            "componentType" : 5126,
            "count" : 364,
            "max" : [
                1.0525598526000977,
                0.556271493434906,
                0.018804233521223068
            ],
            "min" : [
                -0.052977554500103,
                -0.13438427448272705,
                -1.8533027172088623
            ],
            "type" : "VEC3"
        },
        {
            "bufferView" : 9,
            "componentType" : 5126,
            "count" : 364,
            "type" : "VEC3"
        },
        {
            "bufferView" : 10,
            "componentType" : 5126,
            "count" : 364,
            "type" : "VEC2"
        },
        {
            "bufferView" : 11,
            "componentType" : 5123,
            "count" : 714,
            "type" : "SCALAR"
        },
        {
            "bufferView" : 12,
            "componentType" : 5126,
            "count" : 96,
            "max" : [
                3.061546802520752,
                0.004244348034262657,
                0.9034455418586731
            ],
            "min" : [
                1.0545119047164917,
                -0.005755653139203787,
                -1.1170570850372314
            ],
            "type" : "VEC3"
        },
        {
            "bufferView" : 13,
            "componentType" : 5126,
            "count" : 96,
            "type" : "VEC3"
        },
        {
            "bufferView" : 14,
            "componentType" : 5126,
            "count" : 96,
            "type" : "VEC2"
        },
        {
            "bufferView" : 15,
            "componentType" : 5123,
            "count" : 144,
            "type" : "SCALAR"
        },
        {
            "bufferView" : 16,
            "componentType" : 5126,
            "count" : 4,
            "max" : [
                1,
                0,
                1
            ],
            "min" : [
                -1,
                0,
                -1
            ],
            "type" : "VEC3"
        },
        {
            "bufferView" : 17,
            "componentType" : 5126,
            "count" : 4,
            "type" : "VEC3"
        },
        {
            "bufferView" : 18,
            "componentType" : 5126,
            "count" : 4,
            "type" : "VEC2"
        },
        {
            "bufferView" : 19,
            "componentType" : 5123,
            "count" : 6,
            "type" : "SCALAR"
        },
        {
            "bufferView" : 20,
            "componentType" : 5126,
            "count" : 19673,
            "max" : [
                13.055008888244629,
                0.004999999888241291,
                0.014008551836013794
            ],
            "min" : [
                0.04298987612128258,
                -0.004999999888241291,
                -0.6960030198097229
            ],
            "type" : "VEC3"
        },
        {
            "bufferView" : 21,
            "componentType" : 5126,
            "count" : 19673,
            "type" : "VEC3"
        },
        {
            "bufferView" : 22,
            "componentType" : 5126,
            "count" : 19673,
            "type" : "VEC2"
        },
        {
            "bufferView" : 23,
            "componentType" : 5123,
            "count" : 93108,
            "type" : "SCALAR"
        },
        {
            "bufferView" : 24,
            "componentType" : 5126,
            "count" : 24,
            "max" : [
                1,
                1,
                1
            ],
            "min" : [
                -1,
                -1,
                -1
            ],
            "type" : "VEC3"
        },
        {
            "bufferView" : 25,
            "componentType" : 5126,
            "count" : 24,
            "type" : "VEC3"
        },
        {
            "bufferView" : 26,
            "componentType" : 5126,
            "count" : 24,
            "type" : "VEC2"
        },
        {
            "bufferView" : 27,
            "componentType" : 5123,
            "count" : 36,
            "type" : "SCALAR"
        },
        {
            "bufferView" : 28,
            "componentType" : 5126,
            "count" : 40,
            "max" : [
                1.6
            ],
            "min" : [
                0.04
            ],
            "type" : "SCALAR"
        },
        {
            "bufferView" : 29,
            "componentType" : 5126,
            "count" : 40,
            "type" : "VEC3"
        },
        {
            "bufferView" : 30,
            "componentType" : 5126,
            "count" : 40,
            "type" : "VEC4"
        },
        {
            "bufferView" : 31,
            "componentType" : 5126,
            "count" : 40,
            "type" : "VEC3"
        },
        {
            "bufferView" : 32,
            "componentType" : 5126,
            "count" : 40,
            "type" : "VEC3"
        },
        {
            "bufferView" : 33,
            "componentType" : 5126,
            "count" : 40,
            "type" : "VEC4"
        },
        {
            "bufferView" : 34,
            "componentType" : 5126,
            "count" : 40,
            "type" : "VEC3"
        }
    ],
    "bufferViews" : [
        {
            "buffer" : 0,
            "byteLength" : 30240,
            "byteOffset" : 0
        },
        {
            "buffer" : 0,
            "byteLength" : 30240,
            "byteOffset" : 30240
        },
        {
            "buffer" : 0,
            "byteLength" : 20160,
            "byteOffset" : 60480
        },
        {
            "buffer" : 0,
            "byteLength" : 9720,
            "byteOffset" : 80640
        },
        {
            "buffer" : 0,
            "byteLength" : 45024,
            "byteOffset" : 90360
        },
        {
            "buffer" : 0,
            "byteLength" : 45024,
            "byteOffset" : 135384
        },
        {
            "buffer" : 0,
            "byteLength" : 30016,
            "byteOffset" : 180408
        },
        {
            "buffer" : 0,
            "byteLength" : 14472,
            "byteOffset" : 210424
        },
        {
            "buffer" : 0,
            "byteLength" : 4368,
            "byteOffset" : 224896
        },
        {
            "buffer" : 0,
            "byteLength" : 4368,
            "byteOffset" : 229264
        },
        {
            "buffer" : 0,
            "byteLength" : 2912,
            "byteOffset" : 233632
        },
        {
            "buffer" : 0,
            "byteLength" : 1428,
            "byteOffset" : 236544
        },
        {
            "buffer" : 0,
            "byteLength" : 1152,
            "byteOffset" : 237972
        },
        {
            "buffer" : 0,
            "byteLength" : 1152,
            "byteOffset" : 239124
        },
        {
            "buffer" : 0,
            "byteLength" : 768,
            "byteOffset" : 240276
        },
        {
            "buffer" : 0,
            "byteLength" : 288,
            "byteOffset" : 241044
        },
        {
            "buffer" : 0,
            "byteLength" : 48,
            "byteOffset" : 241332
        },
        {
            "buffer" : 0,
            "byteLength" : 48,
            "byteOffset" : 241380
        },
        {
            "buffer" : 0,
            "byteLength" : 32,
            "byteOffset" : 241428
        },
        {
            "buffer" : 0,
            "byteLength" : 12,
            "byteOffset" : 241460
        },
        {
            "buffer" : 0,
            "byteLength" : 236076,
            "byteOffset" : 241472
        },
        {
            "buffer" : 0,
            "byteLength" : 236076,
            "byteOffset" : 477548
        },
        {
            "buffer" : 0,
            "byteLength" : 157384,
            "byteOffset" : 713624
        },
        {
            "buffer" : 0,
            "byteLength" : 186216,
            "byteOffset" : 871008
        },
        {
            "buffer" : 0,
            "byteLength" : 288,
            "byteOffset" : 1057224
        },
        {
            "buffer" : 0,
            "byteLength" : 288,
            "byteOffset" : 1057512
        },
        {
            "buffer" : 0,
            "byteLength" : 192,
            "byteOffset" : 1057800
        },
        {
            "buffer" : 0,
            "byteLength" : 72,
            "byteOffset" : 1057992
        },
        {
            "buffer" : 0,
            "byteLength" : 160,
            "byteOffset" : 1058064
        },
        {
            "buffer" : 0,
            "byteLength" : 480,
            "byteOffset" : 1058224
        },
        {
            "buffer" : 0,
            "byteLength" : 640,
            "byteOffset" : 1058704
        },
        {
            "buffer" : 0,
            "byteLength" : 480,
            "byteOffset" : 1059344
        },
        {
            "buffer" : 0,
            "byteLength" : 480,
            "byteOffset" : 1059824
        },
        {
            "buffer" : 0,
            "byteLength" : 640,
            "byteOffset" : 1060304
        },
        {
            "buffer" : 0,
            "byteLength" : 480,
            "byteOffset" : 1060944
        }
    ],
    "buffers" : [
        {
            "byteLength" : 1061424,
            "uri" : "data:application/octet-stream;base64,"
        }
    ]
}
